<svg xmlns="http://www.w3.org/2000/svg" width="400" height="300" fill="none" viewBox="0 0 400 300">
  <path fill="#000" d="M14.1 243s-15.6 2-13.5 7c2.1 5 20.6 10 33.8 9.4 13.2-.6 29.5-1.8 35.8.1 6.3 1.8 7.2 10.9 36.4 11.9 29.2.9 50.6-6.7 60.8-4.6 10.2 2.1 12.4 4.9 41.7 7.8 29.3 2.8 68.7 1.9 80.1-4.1 11.4-6 .3-16.5 16.2-17.1 15.9-.6 56.7 5.8 73.6 1.7 16.9-4.1 25.1-11 20.1-15.1s-140.9-10.7-140.9-10.7H79.6c0 .1-34.4 4-65.5 13.7z" opacity=".15"/>
  <path fill="#44375E" d="m88.56 99.07-12.6-21.6c-.9-1.3-1.2-2.9-.8-4.4l10.3-35.5c2.8-11.4 12.9-15.9 24.6-15.9l24.4 1.5c2.8.2 5.4 1.2 7.6 3l24.6 20.5c2.2 1.8 3.7 4.3 4.3 7.1l5.7 25.3c.2 1.1 0 2.2-.5 3.2l-6.4 16.3c-.9 1.8-2.8 3-4.8 3h-71.9c-1.8-.1-3.5-1-4.5-2.5z"/>
  <path fill="#615777" d="M144.29 28.03c-11.46-1.17-34-2.87-39.33 1.44-7.3 5.8-13 40.8-13 44.2 0 2.9 4.8 19 6.4 24.3l-6.24 3.47a5.7 5.7 0 0 1-3.55-2.37l-12.6-21.6c-.9-1.3-1.2-2.9-.8-4.4l10.3-35.5c2.8-11.4 12.9-15.9 24.6-15.9l24.4 1.5c2.8.2 5.4 1.2 7.6 3l2.22 1.86z"/>
  <path fill="#2F2549" d="m144.5 28.2 22.16 18.47c2.2 1.8 3.7 4.3 4.3 7.1l5.7 25.3c.2 1.1 0 2.2-.5 3.2l-6.4 16.3a5.5 5.5 0 0 1-3.28 2.77l-49.22-3.37c8.89-1.3 19-2.38 26.63-3.2 4.15-.45 7.56-.82 9.67-1.1 8.6-1.2 11.3-6.1 11.3-11.3 0-3.5 0-12.1-3.5-15.6-2.34-2.34-5.8-2.71-10.44-3.21-2.3-.25-4.88-.52-7.76-1.09-8.7-1.7-12.1-19.1-10.4-22.5.83-1.57 6.45-6.83 10.61-10.71l1.13-1.05z"/>
  <path fill="#120223" d="m87.92 97.97.64 1.1c1 1.5 2.7 2.4 4.5 2.5h71.9c2 0 3.9-1.2 4.8-3l.24-.6H87.92z"/>
  <path fill="#fff" d="M115.06 55.17a11.3 11.3 0 1 1-22.51-1.36h22.43c.06.45.08.9.08 1.36zm9.59-1.36a11.38 11.38 0 0 0-.09 1.36 11.3 11.3 0 1 0 22.52-1.36h-22.43z"/>
  <path fill="#120223" d="M103.76 60.87a5.7 5.7 0 1 0 0-11.4 5.7 5.7 0 0 0 0 11.4zm32.1 0a5.7 5.7 0 1 0 0-11.4 5.7 5.7 0 0 0 0 11.4z"/>
  <path fill="#5C00D3" d="M103.76 57.37a2.2 2.2 0 1 0 0-4.4 2.2 2.2 0 0 0 0 4.4zm32.1 0a2.2 2.2 0 1 0 0-4.4 2.2 2.2 0 0 0 0 4.4z"/>
  <path fill="#615777" d="M115 53.97H92.53a11.3 11.3 0 0 1 22.47 0zm32.1 0h-22.47a11.3 11.3 0 0 1 22.47 0z"/>
  <path fill="#fff" d="M90.96 37.67c-.2 0-.3 0-.5-.1-.7-.3-1-1-.7-1.7.2-.4 3.8-9.3 13.1-11.2.7-.1 1.4.3 1.5 1 .1.7-.3 1.4-1 1.5-7.9 1.6-11.2 9.5-11.2 9.6-.2.6-.7.9-1.2.9z" opacity=".35"/>
  <path fill="#44375E" d="m46.3 139.3-10.4-19.7c-.8-1.2-.9-2.5-.3-3.7l14.3-28.2c4-9.1 14.8-11.5 26.6-10l24.5 4.4a15 15 0 0 1 7.4 3.5l22.6 20.2c2 1.8 3.3 4.1 3.6 6.4l3 21.7c0 .9-.3 1.8-.9 2.6l-8.2 12.7c-1.1 1.4-3.1 2.1-5.2 1.9l-72.6-9.4c-2-.2-3.6-1.1-4.4-2.4z"/>
  <path fill="#615777" d="M50.36 141.66a31.56 31.56 0 0 1-4.38-2.97L35.9 119.6c-.8-1.2-.9-2.5-.3-3.7l14.3-28.2c4-9.1 14.8-11.5 26.6-10l24.5 4.4c1.84.33 3.6.96 5.15 1.86-13.73-1.8-34.6-3.59-39.75-1.16-7.04 3.43-9.59 32.05-10.37 40.83-.1 1.2-.18 2.02-.23 2.37-.2 1.53.39 3.54 1.1 6 .4 1.39.84 2.93 1.2 4.6l-6.56 5.2-.84-.1a7.35 7.35 0 0 1-.34-.04z"/>
  <path fill="#2F2549" d="M75.1 127.8c2.8-8.5 14.4-26.4 22.2-32.2 1.34-1.04 8.54-5.38 13.14-8.17L131 105.8c2 1.8 3.3 4.1 3.6 6.4l3 21.7c0 .9-.3 1.8-.9 2.6l-8.2 12.7a5.5 5.5 0 0 1-3.96 1.91c-20.59-3.86-58.13 2.76-49.44-23.31z"/>
  <path fill="#fff" d="M55.2 88.5c-.2 0-.3-.1-.5-.1-.6-.3-.9-1-.6-1.5.2-.3 4.9-7.3 14.4-7.6.7 0 1.4.4 1.4 1 .1.6-.5 1.1-1.2 1.1-8.1.3-12.3 6.5-12.3 6.5-.1.5-.7.7-1.2.6z" opacity=".35"/>
  <path fill="#44375E" d="m161 163.3-6.2-33.1c-.5-2-.3-4.2.7-6.1l24.7-44.8c7.3-14.5 20.4-17.5 33.5-13.9l26.9 9.5c3.1 1.1 5.7 3.3 7.4 6.4l20.1 35.1c1.8 3.1 2.6 6.9 2.3 10.9l-2.9 35.8c-.2 1.5-.8 3-1.8 4.2l-13.2 20c-1.7 2.2-4.2 3.2-6.5 2.6l-80.8-22c-2-.6-3.6-2.3-4.2-4.6z"/>
  <path fill="#615777" d="M249.81 84.46c-12.43-5.06-37.1-14.3-44.71-10.16-10.4 5.6-29.6 51-30.9 55.7-1.1 3.9-1.6 27.1-1.7 34.7l-8.4 2.7a1.88 1.88 0 0 1-.13-.04 6.55 6.55 0 0 1-2.97-4.06l-6.2-33.1c-.5-2-.3-4.2.7-6.1l24.7-44.8c7.3-14.5 20.4-17.5 33.5-13.9l26.9 9.5c3.1 1.1 5.7 3.3 7.4 6.4l1.81 3.16z"/>
  <path fill="#2F2549" d="m249.8 84.44 18.3 31.96c1.8 3.1 2.6 6.9 2.3 10.9l-2.9 35.8c-.2 1.5-.8 3-1.8 4.2l-13.2 20a6.73 6.73 0 0 1-4.84 2.76L193.6 170.5c9.39.88 19.83 2.3 28.3 3.44 6.05.83 11.08 1.51 14 1.76 10.1 1 15-4.7 16.8-11.8l.24-.93c1.34-5.17 4.1-15.82 1.56-21.17-1.73-3.79-5.49-5.37-10.48-7.47a85.47 85.47 0 0 1-8.42-3.93c-9.1-5-6.6-29.5-3.4-33.6 1.46-1.86 9.25-6.92 15.3-10.85l2.3-1.5z"/>
  <path fill="#fff" d="M187.1 81.8c-.2 0-.3 0-.5-.1-.7-.3-1-1-.7-1.7.2-.4 3.8-9.3 13.1-11.2.7-.1 1.4.3 1.5 1 .1.7-.3 1.4-1 1.5-7.9 1.6-11.2 9.5-11.2 9.6-.2.6-.7.9-1.2.9z" opacity=".35"/>
  <path fill="#44375E" d="m122.7 155.1-12.6-18.3c-.9-1.1-1.2-2.4-1-3.8l5.9-32.4c1.4-10.3 9.7-15.1 19.7-16.1l21-.6c2.4-.1 4.8.7 6.7 2.1l22.7 16.3c2 1.4 3.5 3.5 4.3 6l6.9 22c.2 1 .2 2-.2 2.9l-4.1 15c-.6 1.7-2.1 2.9-3.9 3l-61.4 5.7c-1.5.1-3-.6-4-1.8z"/>
  <path fill="#615777" d="M164.5 87.5c-9.84-.12-29.36.16-33.6 4.4-5.8 5.8-7.8 37.3-7.5 40.4.2 2.6 5.6 16.5 7.5 21.1l-4.94 3.49a4.98 4.98 0 0 1-3.26-1.79l-12.6-18.3c-.9-1.1-1.2-2.4-1-3.8l5.9-32.4c1.4-10.3 9.7-15.1 19.7-16.1l21-.6c2.4-.1 4.8.7 6.7 2.1l2.1 1.5z"/>
  <path fill="#2F2549" d="m164.57 87.56 20.53 14.74c2 1.4 3.5 3.5 4.3 6l6.9 22c.2 1 .2 2-.2 2.9l-4.1 15a4.49 4.49 0 0 1-2.63 2.73l-15.94.33c-2.4 1.45-4.65 2.13-4.83.44a1.37 1.37 0 0 1 .01-.34l-21.51.44c7.08-1.72 15.14-3.4 21.46-4.73l3.43-.72.15-.18c3.41-4.1 7.94-9.52 7.06-14.67a53.38 53.38 0 0 1-.21-1.42c-.55-3.88-1.18-8.42-8.39-14.38-5.9-4.8-16.2-13.6-15-16.8.53-1.46 4.67-6.3 7.86-10.04l1.1-1.3z"/>
  <path fill="#120223" d="m122.01 154.1.69 1c1 1.2 2.5 1.9 4 1.8l61.4-5.7c1.8-.1 3.3-1.3 3.9-3l.14-.53-70.13 6.43z"/>
  <path fill="#fff" d="M119.6 100.3h-.4c-.6-.2-.9-.8-.8-1.4.1-.4 2.5-8.6 10.3-11 .6-.2 1.2.2 1.4.8.2.6-.2 1.3-.7 1.4-6.6 2-8.7 9.4-8.8 9.4-.2.4-.5.7-1 .8z" opacity=".35"/>
  <path fill="#44375E" d="M196.9 202.1 186 183.3c-.8-1.1-1-2.5-.7-3.8l9-30.8c2.4-9.9 11.2-13.8 21.4-13.8l21.2 1.3c2.4.1 4.7 1.1 6.6 2.6l21.3 17.8c1.9 1.6 3.2 3.7 3.7 6.1l4.9 21.9c.1 1 0 1.9-.4 2.8l-5.6 14.1c-.8 1.6-2.4 2.6-4.2 2.6h-62.4c-1.5 0-3-.7-3.9-2z"/>
  <path fill="#615777" d="M245.47 140.44c-9.88-1.01-29.58-2.49-34.27 1.26-6.3 5.1-11.3 35.4-11.3 38.4 0 2.34 3.7 14.7 5.3 20.12l.3.98-5.26 2.87a4.71 4.71 0 0 1-3.34-1.97L186 183.3c-.8-1.1-1-2.5-.7-3.8l9-30.8c2.4-9.9 11.2-13.8 21.4-13.8l21.2 1.3c2.4.1 4.7 1.1 6.6 2.6l1.97 1.64z"/>
  <path fill="#2F2549" d="m245.45 140.43 19.35 16.17c1.9 1.6 3.2 3.7 3.7 6.1l4.9 21.9c.1 1 0 1.9-.4 2.8l-5.6 14.1a4.67 4.67 0 0 1-3.12 2.48l-42.48-2.88a684.2 684.2 0 0 1 20.66-2.5c4.66-.53 8.57-.96 10.84-1.3 7.4-1.1 9.8-5.3 9.8-9.8-3.06-2.96-10.18-5.62-17.7-7.1-7.6-1.5-11.7-26.8-10.1-29.8.68-1.36 5.55-5.89 9.18-9.26l.97-.91z"/>
  <path fill="#120223" d="m196.32 201.1.58 1c.9 1.3 2.4 2 3.9 2h62.4c1.8 0 3.4-1 4.2-2.6l.16-.4h-71.24z"/>
  <path fill="#fff" d="M199 148.8c-.1 0-.3 0-.4-.1-.6-.2-.9-.9-.6-1.5.1-.3 3.3-8.1 11.4-9.7.6-.1 1.2.3 1.3.9.1.6-.3 1.2-.9 1.3-6.8 1.4-9.7 8.3-9.7 8.3-.3.6-.7.8-1.1.8z" opacity=".35"/>
  <path fill="#2F2549" d="M16 207.1 5 184.9c-.8-1.3-1-2.9-.7-4.5l9-36.4c2.4-11.6 11.3-16.3 21.5-16.3l21.4 1.5c2.4.2 4.8 1.3 6.6 3.1l21.5 21c1.9 1.9 3.2 4.4 3.8 7.2l5 25.9c.1 1.1 0 2.3-.4 3.3l-5.6 16.7c-.8 1.9-2.4 3.1-4.2 3.1l-45.1 17c-1.6 0-20.9-17.9-21.8-19.4z"/>
  <path fill="#615777" d="M64.92 134.37c-9.96-1.2-29.86-3-34.62 1.43-6.4 6-11.4 41.7-11.4 45.3 0 2.9 4.2 19.4 5.6 24.9l-5.6 3.6a4 4 0 0 1-.6-.06 24.23 24.23 0 0 1-2.3-2.44L5 184.9c-.8-1.3-1-2.9-.7-4.5l9-36.4c2.4-11.6 11.3-16.3 21.5-16.3l21.4 1.5c2.4.2 4.8 1.3 6.6 3.1l2.12 2.07z"/>
  <path fill="#fff" d="M18 144.2c-.1 0-.3 0-.4-.1-.6-.3-.9-1-.6-1.7.1-.4 3.4-9.6 11.5-11.5.6-.1 1.2.3 1.3 1 .1.7-.3 1.4-.9 1.6-6.9 1.6-9.8 9.8-9.8 9.8-.2.6-.6.9-1.1.9z" opacity=".35"/>
  <path fill="#44375E" d="m57.4 227.5-19.1-21.7c-1.3-1.2-2-3-2-4.8l1.7-43.1c0-13.7 9.6-21.3 22.1-24.1l26.4-4.2c3-.5 6.1.1 8.9 1.6l31.5 17.4c2.8 1.5 5.1 4 6.4 7L146 183c.5 1.2.6 2.5.3 3.8l-2.6 20.2c-.5 2.3-2.2 4.1-4.4 4.6l-76.5 17.5c-1.9.4-3.9-.2-5.4-1.6z"/>
  <path fill="#615777" d="M98.13 132.7c-12.5 1.48-36.86 4.94-41.43 11.2-6.3 8.4-3.2 49.8-2.3 53.7.8 3.3 10 20.5 13.2 26.2l-5.81 5.42a6.2 6.2 0 0 1-4.39-1.72l-19.1-21.7c-1.3-1.2-2-3-2-4.8l1.7-43.1c0-13.7 9.6-21.3 22.1-24.1l26.4-4.2c3-.5 6.1.1 8.9 1.6l2.73 1.5z"/>
  <path fill="#2F2549" d="m98.19 132.74 28.71 15.86c2.8 1.5 5.1 4 6.4 7L146 183c.5 1.2.6 2.5.3 3.8l-2.6 20.2a6.07 6.07 0 0 1-2.9 4.02l-53.2 8.08a762.31 762.31 0 0 1 25.1-9.27c5.36-1.9 9.83-3.5 12.4-4.53 8.8-3.5 10.5-9.7 9.1-15.6l-.19-.76c-1.08-4.38-3.28-13.32-7.61-16.24-2.15-1.45-5.32 2.1-9.08 6.3-4.3 4.8-9.35 10.45-14.52 10.5-9.7.1-14.8-36.2-13.9-40.6.4-1.94 4.82-9 8.21-14.44l1.08-1.72z"/>
  <path fill="#120223" d="m56.4 226.37 1 1.13c1.5 1.4 3.5 2 5.4 1.6l76.5-17.5c2.2-.5 3.9-2.3 4.4-4.6l.08-.63-87.38 20z"/>
  <path fill="#fff" d="M43.9 156.7h-.5c-.8-.1-1.3-.9-1.2-1.8.1-.5 1.6-11.6 11-16 .7-.3 1.6 0 1.9.8.3.8 0 1.7-.7 2-8 3.7-9.4 13.6-9.4 13.7-.1.7-.6 1.2-1.1 1.3z" opacity=".35"/>
  <path fill="#44375E" d="m111.8 214.6-7.7-28.2c-.6-1.7-.5-3.6.4-5.1l22.2-36.9c6.5-12 19.3-14 32.4-10.5l27.1 8.9c3.1 1 5.8 3 7.7 5.6l21.6 30.3c1.9 2.7 2.9 5.9 2.8 9.2l-1.1 30.1c-.1 1.3-.7 2.5-1.5 3.5L203.4 238c-1.6 1.8-4 2.5-6.3 1.9l-80.9-21.4a6 6 0 0 1-4.4-3.9z"/>
  <path fill="#615777" d="M196 151.33c-12.45-4.69-37.66-13.48-45-10.23-10 4.4-26.8 42-27.8 45.9-.9 3.2-.3 22.8 0 29.2l-8.04 1.96a5.93 5.93 0 0 1-3.36-3.56l-7.7-28.2c-.6-1.7-.5-3.6.4-5.1l22.2-36.9c6.5-12 19.3-14 32.4-10.5l27.1 8.9c3.1 1 5.8 3 7.7 5.6l2.1 2.93z"/>
  <path fill="#2F2549" d="m195.94 151.27 19.56 27.43c1.9 2.7 2.9 5.9 2.8 9.2l-1.1 30.1c-.1 1.3-.7 2.5-1.5 3.5L203.4 238a6.22 6.22 0 0 1-5.19 2.09L144.5 221.9c9.37 1.11 19.8 2.67 28.24 3.93 5.98.9 10.96 1.64 13.86 1.97 10 1.2 14.6-3.5 16-9.3l.06-.24c1.04-4.04 3.48-13.56.64-18.36-1.25-2.11-5.36 1.89-10.37 6.76-6.62 6.44-14.8 14.4-20.03 11.84-9.2-4.5 3.2-54 6.2-57.4 1.35-1.55 9-5.64 14.83-8.75l2.01-1.08z"/>
  <path fill="#120223" d="m111.41 213.18.39 1.42a6 6 0 0 0 4.4 3.9l80.9 21.4c2.3.6 4.7-.1 6.3-1.9l.35-.47-92.34-24.35z"/>
  <path fill="#fff" d="M132.7 146.2c-.2 0-.4-.1-.5-.2-.7-.5-.8-1.4-.3-2.1.3-.4 7.1-9.4 18.1-8.7.8 0 1.5.8 1.4 1.6-.1.8-.8 1.5-1.6 1.4-9.4-.6-15.4 7.4-15.5 7.5-.4.4-1 .6-1.6.5z" opacity=".35"/>
  <path fill="#44375E" d="M14.9 245.1 2.6 227.4c-.9-1-1.1-2.3-.8-3.6l10-29c2.7-9.3 12.6-13 23.9-13l23.8 1.2c2.7.1 5.3 1 7.4 2.5l23.9 16.7c2.1 1.5 3.6 3.5 4.2 5.8l5.5 20.6c.2.9 0 1.8-.5 2.6l-6.2 13.3a5.4 5.4 0 0 1-4.7 2.4s-34.1 3.3-61.2 3.3c-2.2.2-12-3.9-13-5.1z"/>
  <path fill="#615777" d="M69.32 187.19c-11.06-.94-33.23-2.39-38.52 1.11-7.1 4.8-12.6 33.3-12.6 36.1 0 1.7 3.67 11.1 6.26 17.73.93 2.38 1.72 4.4 2.14 5.57l-8.13-.59c-1.8-.82-3.22-1.6-3.57-2.01L2.6 227.4c-.9-1-1.1-2.3-.8-3.6l10-29c2.7-9.3 12.6-13 23.9-13l23.8 1.2c2.7.1 5.3 1 7.4 2.5l2.42 1.69z"/>
  <path fill="#2F2549" d="m12.63 241.84 2.27 3.26c1 1.2 10.8 5.3 13 5.1 27.1 0 61.2-3.3 61.2-3.3 2 0 3.8-.9 4.7-2.4l6.2-13.3c.5-.8.7-1.7.5-2.6L95 208c-.6-2.3-2.1-4.3-4.2-5.8l-21.52-15.04-1.53 1.2c-4.02 3.12-9.22 7.18-9.95 8.44-1.7 2.8-4.9 29 .6 34.5 6.8 6.7 9.4 12.5 1.1 13.6-10.4 1.4-21.6 2.6-32.9 1.4-5.62-.6-10.1-2.58-13.97-4.46z"/>
  <path fill="#fff" d="M17.2 195c-.2 0-.3 0-.5-.1-.6-.2-1-.8-.7-1.4.1-.3 3.7-7.6 12.7-9.1.7-.1 1.4.3 1.5.8.1.6-.3 1.1-1 1.2-7.7 1.3-10.8 7.8-10.9 7.8-.2.6-.6.8-1.1.8z" opacity=".35"/>
  <path fill="#44375E" d="M86.1 254 76 231c-.7-1.4-.8-3-.3-4.4L90 192.5c4-11 14.7-14.3 26.3-13l24.1 4.3c2.8.5 5.3 1.8 7.2 3.9l22.1 23.1c2 2.1 3.2 4.7 3.5 7.5l2.7 25.7c0 1.1-.3 2.2-.9 3.1l-6.5 9.3a5.24 5.24 0 0 1-5.1 2.4s-12.1 2.3-33.2 2.1c-21.1-.2-39.9-4.1-39.9-4.1-1.9-.2-3.4-1.2-4.2-2.8z"/>
  <path fill="#615777" d="M149.6 189.8c-11.2-2.48-33.45-6.75-39.3-3.1-7.9 5-17.6 39-18 42.5-.3 2.9 2.6 19.4 3.6 24.9l-6.38 2.57A5.01 5.01 0 0 1 86.1 254L76 231c-.7-1.4-.8-3-.3-4.4L90 192.5c4-11 14.7-14.3 26.3-13l24.1 4.3c2.8.5 5.3 1.8 7.2 3.9l2 2.1z"/>
  <path fill="#2F2549" d="M84.86 251.19 86.1 254c.8 1.6 2.3 2.6 4.2 2.8 0 0 18.8 3.9 39.9 4.1 21.1.2 33.2-2.1 33.2-2.1 2 .3 4-.7 5.1-2.4l6.5-9.3c.6-.9.9-2 .9-3.1l-2.7-25.7c-.3-2.8-1.5-5.4-3.5-7.5l-20.18-21.1a793 793 0 0 1-1.88 1.4c-4.51 3.34-10.22 7.56-11.14 9-2.1 3.2-3.1 30.6 2.5 37.5 5.3 6.6 3.2 11.1-5.2 14.8-10.33 4.54-24.98 2.29-37.73.32-3.98-.6-7.78-1.2-11.2-1.53z"/>
  <path fill="#fff" d="M95.4 193.3c-.2 0-.3-.1-.5-.1-.6-.3-.9-1.1-.5-1.8.2-.4 4.9-8.9 14.3-9.6.7-.1 1.3.5 1.4 1.2.1.7-.5 1.3-1.2 1.4-8 .7-12.2 8.2-12.2 8.3-.3.4-.8.6-1.3.6z" opacity=".35"/>
  <path fill="#44375E" d="m273.4 198.9-12.6-21.7c-.9-1.3-1.2-2.9-.8-4.4l10-27.7c6.9-12.1 13.9-19.1 24.3-22.5 10.4-3.5 25.1-8.3 25.1-8.3 2.8.2 5.4 1.2 7.6 3l24.6 29.1c2.2 1.8 3.7 4.3 4.3 7.1l5.7 25.3c.2 1.1 0 2.2-.5 3.2l-6.4 16.3c-.9 1.8-2.8 3-4.8 3H278c-1.9 0-3.6-.9-4.6-2.4z"/>
  <path fill="#615777" d="M327.44 117.82c-14.94 3.3-26.88 9.58-36.64 15.18-12.1 6.9-14 37-14 40.5 0 2.9 4.8 19 6.4 24.3l-6.16 3.42a5.4 5.4 0 0 1-3.64-2.32l-12.6-21.7c-.9-1.3-1.2-2.9-.8-4.4l10-27.7c6.9-12.1 13.9-19.1 24.3-22.5 10.4-3.5 25.1-8.3 25.1-8.3 2.8.2 5.4 1.2 7.6 3l.44.52z"/>
  <path fill="#2F2549" d="m335.12 126.9 16.48 19.5c2.2 1.8 3.7 4.3 4.3 7.1l5.7 25.3c.2 1.1 0 2.2-.5 3.2l-6.4 16.3a5.5 5.5 0 0 1-3.6 2.86l-49-3.36c8.88-1.3 18.99-2.38 26.63-3.2 4.14-.45 7.56-.82 9.67-1.1 8.6-1.2 11.3-6.1 11.3-11.3 0-3.5 0-12.1-3.5-15.6-2.34-2.34-5.8-2.71-10.44-3.21-2.3-.25-4.88-.53-7.76-1.09-8.7-1.7-12.1-19.1-10.4-22.5.68-1.3 5.77-4.74 10.44-7.9 2.9-1.97 5.65-3.82 7.08-5z"/>
  <path fill="#120223" d="m272.76 197.8.64 1.1c1 1.5 2.7 2.4 4.6 2.4h71.9c2 0 3.9-1.2 4.8-3l.2-.5h-82.14z"/>
  <path fill="#fff" d="M291.7 162.2a11.3 11.3 0 1 0 0-22.6 11.3 11.3 0 0 0 0 22.6z"/>
  <path fill="#120223" d="M291.7 156.6a5.7 5.7 0 1 0 0-11.4 5.7 5.7 0 0 0 0 11.4z"/>
  <path fill="#fff" d="M334.43 157.91a11.3 11.3 0 1 0-22.3-3.69 11.3 11.3 0 0 0 22.3 3.7z"/>
  <path fill="#120223" d="M323.3 161.8a5.7 5.7 0 1 0 0-11.4 5.7 5.7 0 0 0 0 11.4z"/>
  <path fill="#5C00D3" d="M291.7 153.1a2.2 2.2 0 1 0 0-4.4 2.2 2.2 0 0 0 0 4.4zm31.6 5.2a2.2 2.2 0 1 0 0-4.4 2.2 2.2 0 0 0 0 4.4z"/>
  <path stroke="#fff" stroke-linecap="round" stroke-miterlimit="10" stroke-width="2" d="M281.1 136.6s13-18.8 23-6.2m12.1 11s13.9-5.8 23.2 7.2" opacity=".35"/>
  <path fill="#44375E" d="m311.6 239.9-9-20.8c-.7-1.2-.7-2.7-.3-4l13.1-30.7c3.7-9.9 13.3-12.8 23.8-11.6l21.7 4c2.5.5 4.7 1.7 6.5 3.5l19.8 21c1.8 1.9 2.8 4.3 3.1 6.8l2.3 23.2c0 1-.3 2-.8 2.8l-4.1 7.3c-1 1.5-2.8 2.4-4.7 2.2 0 0-16 2.3-35.7 2.3-19.7 0-32.1-3.5-32.1-3.5a4.8 4.8 0 0 1-3.6-2.5z"/>
  <path fill="#615777" d="m369.29 182.3-1.89-2c-1.8-1.8-4-3-6.5-3.5l-21.7-4c-10.5-1.2-20.1 1.7-23.8 11.6l-13.1 30.7c-.4 1.3-.4 2.8.3 4l9 20.8a5.18 5.18 0 0 0 2.52 2.25l-2.52-2.25c-.54-3.3 2.13-11.1 4.03-16.66.93-2.71 1.67-4.89 1.77-5.74.3-3.1 9.2-33.8 16.4-38.2 5.26-3.31 25.37.73 35.49 3z"/>
  <path fill="#2F2549" d="m310.57 237.53 1.03 2.37a4.8 4.8 0 0 0 3.6 2.5s12.4 3.5 32.1 3.5c19.7 0 35.7-2.3 35.7-2.3 1.9.2 3.7-.7 4.7-2.2l4.1-7.3c.5-.8.8-1.8.8-2.8l-2.3-23.2c-.3-2.5-1.3-4.9-3.1-6.8l-17.85-18.93-1 .72c-4.18 3.04-9.95 7.22-10.85 8.61-1.24 1.89 1.04 7.12 3.45 12.64 1.29 2.96 2.61 6 3.45 8.66 4.2 13.1-6.2 24.6-14 24.8-2.07.04-8.7-.02-16.84-.1-7.2-.07-15.56-.14-22.99-.17z"/>
  <path fill="#fff" d="M320.4 185.1c-.1 0-.3-.1-.4-.1-.6-.3-.8-1-.5-1.6.2-.3 4.4-8 12.9-8.6.6-.1 1.2.4 1.3 1.1.1.6-.4 1.2-1.1 1.3-7.2.6-11 7.3-11.1 7.4-.2.3-.7.6-1.1.5z" opacity=".35"/>
  <path fill="#44375E" d="m253.8 240.8-9.6-16.5c-.7-1-.9-2.2-.6-3.3l7.8-27c2.1-8.6 9.8-12.1 18.7-12.1l18.6 1.1c2.1.1 4.1.9 5.8 2.3l18.6 15.5c1.7 1.4 2.8 3.3 3.3 5.4l4.3 19.2c.1.8 0 1.7-.4 2.4l-4.9 12.4c-.7 1.4-2.1 2.3-3.7 2.3h-54.6c-1.3 0-2.6-.6-3.3-1.7z"/>
  <path fill="#615777" d="M296.3 186.8c-8.57-.89-26-2.24-30.1 1.1-5.5 4.4-9.9 31-9.9 33.6 0 2.2 3.6 14.4 4.9 18.4l-4.72 2.56a3.8 3.8 0 0 1-2.68-1.66l-9.6-16.5c-.7-1-.9-2.2-.6-3.3l7.8-27c2.1-8.6 9.8-12.1 18.7-12.1l18.6 1.1c2.1.1 4.1.9 5.8 2.3l1.8 1.5z"/>
  <path fill="#2F2549" d="M257.06 242.5a4.24 4.24 0 0 1-.56-.04c5.9-.83 14.67-1.22 22-1.55 5.66-.25 10.46-.46 12.4-.81 14.1-2.3 9.4-22.3 4.1-27.3-4.9-4.6-9.2-14.5-7.9-17.1.58-1.15 4.35-4.68 7.4-7.54l1.62-1.51 16.98 14.15c1.7 1.4 2.8 3.3 3.3 5.4l1.05 4.67.05.43.08.18 3.12 13.92c.1.8 0 1.7-.4 2.4l-4.9 12.4a4.11 4.11 0 0 1-3.66 2.3h-54.68z"/>
  <path fill="#fff" d="M255.5 194.1c-.1 0-.2 0-.4-.1-.5-.2-.8-.8-.6-1.3.1-.3 2.9-7.1 9.9-8.5.5-.1 1.1.2 1.2.8.1.5-.2 1.1-.8 1.2-6 1.2-8.5 7.2-8.5 7.3 0 .4-.4.6-.8.6z" opacity=".35"/>
  <path fill="#44375E" d="M174.8 258.7c-1.2-1.3-1.8-3-1.7-4.7l2.7-38.9c1.1-13 14.1-22.1 27-24.1l27.3-2.6c3.1-.3 6.2.4 8.9 2l30.7 18.4c2.7 1.6 4.8 4.1 6 7.1l10.7 27c.4 1.2.4 2.5 0 3.7l-2.8 12.5c-46.4 11.3-108.8-.4-108.8-.4z"/>
  <path fill="#615777" fill-rule="evenodd" d="M241.8 192.08c-12.89.73-38.13 2.75-43.3 8.42-7.1 7.7-7.3 47.4-6.7 51.2.22 1.4 1.89 5.41 3.92 9.97-12.7-1.43-20.92-2.97-20.92-2.97-1.2-1.3-1.8-3-1.7-4.7l2.7-38.9c1.1-13 14.1-22.1 27-24.1l27.3-2.6c3.1-.3 6.2.4 8.9 2l2.8 1.68z" clip-rule="evenodd"/>
  <path fill="#2F2549" d="M173.1 254c-.1 1.7.5 3.4 1.7 4.7 0 0 62.4 11.7 108.8.4l2.8-12.5c.4-1.2.4-2.5 0-3.7l-10.7-27c-1.2-3-3.3-5.5-6-7.1l-27.76-16.64-1.05 1.34c-3.93 5.03-9.27 11.87-9.89 13.8-1.3 4.1 4.4 17.8 13.4 22 8.1 3.8 9.3 13.9 7 19.6-4.1 10-59.6 11.5-68.7 8.1a47.2 47.2 0 0 1-9.48-4.7l-.12 1.7z"/>
  <path fill="#fff" d="M184.4 212.1h-.6c-.8-.2-1.3-1-1.1-1.7.1-.4 2.6-11 12.5-14.7.8-.3 1.6.1 1.9.9.3.8-.1 1.6-.9 1.9-8.5 3.1-10.7 12.5-10.7 12.6 0 .5-.5.9-1.1 1z" opacity=".35"/>
  <path fill="#EA3359" d="M294.57 117.2s21.76-22.72 41.45-16.96c19.7 5.76 36.7 37.86 33.09 42.95-3.62 5.1-5.61-8.38-7.67-7.76-2.05.62-3.6 7.76-3.6 7.76l-63.27-25.99z"/>
  <path fill="#fff" fill-rule="evenodd" d="M294.38 123.4c-1.68-.17-2.84-.28-3.72-.68-2.91-1.32-3.29-7.41 2.39-7.36 5.67.05 15.76 2.11 31.14 7.36 9.64 3.28 18.24 8.69 24.75 12.78 3.88 2.43 7.02 4.4 9.2 5.2 5.74 2.06 1.92 9.8 1.17 11.33l-.03.07c-.65 1.32-3.57 4.17-7.18 1.54a56.07 56.07 0 0 1-3.52-3.04c-5.9-5.32-17.18-15.5-31.29-21.16-12.44-5-19.05-5.65-22.9-6.04zm77.07 18.54a4.41 4.41 0 0 1-4.4 4.42 4.41 4.41 0 0 1-4.42-4.42 4.41 4.41 0 0 1 4.41-4.4 4.41 4.41 0 0 1 4.41 4.4z" clip-rule="evenodd"/>
  <path fill="#61DBEF" d="m195.43 43.12.19.68-.06-.68h-.13zm.4 10.22-2.85-10.22h-.57v9.33l.09.9h3.32zm12.62-10.22h-8.17l.93 10.22h13.24v-4.17a6.75 6.75 0 0 1-6-6.05zm-10.18 10.22h1.36l-.92-10.22h-1.58l.83 9.1.31 1.12z" opacity=".25"/>
  <path fill="#61DBEF" d="M198.06 53.34h.21l-.31-1.12.1 1.12zm-5.61-20.96a3.08 3.08 0 0 0-2.28-2.39 2.93 2.93 0 0 0-3 1.07l-5.53 7 1.86 1.47 5.52-7a.56.56 0 0 1 .6-.24.74.74 0 0 1 .51.62l2.85 10.2 2.85 10.23h.66l-.87-9.54-3.17-11.42z"/>
  <path fill="#FAFF1F" fill-rule="evenodd" d="M214.46 43.12h-4.42a5.19 5.19 0 0 0 4.42 4.46v-4.46zm-2.29 1.71.56.56 1.57-1.56a1.66 1.66 0 0 1-.54-.57l-1.59 1.57z" clip-rule="evenodd"/>
  <path fill="#FAFF1F" fill-rule="evenodd" d="M213.62 41.94h-2.33v.4H210a5.17 5.17 0 0 1 3.26-4.7 5.18 5.18 0 0 1 7 3.81 5.17 5.17 0 0 1-5.02 6.18v-1.36h.4v-2.25a2.18 2.18 0 0 1-.4.06v-1.75h-1.68c0-.13.03-.26.07-.4zm3.01 1.24a1.73 1.73 0 0 1-.5.6l1.6 1.6.56-.55-1.65-1.65zm-2.79-1.68-1.67-1.67.56-.56 1.72 1.71a1.58 1.58 0 0 0-.6.52zm1-3.1v2.44a1.58 1.58 0 0 1 .33-.03c.16 0 .31.03.46.07V38.4h-.79zm1.14 2.63 1.76-1.76.56.56-1.75 1.74a1.6 1.6 0 0 0-.57-.54zm3.18.9h-2.44c.1.26.11.53.07.8h2.37v-.8z" clip-rule="evenodd"/>
  <path fill="#FFD31A" fill-rule="evenodd" d="M221.93 42.46a6.75 6.75 0 0 0-1.94-4.8 6.76 6.76 0 0 0-9.55-.08 6.74 6.74 0 0 0-2.02 4.76h1.57a5.18 5.18 0 0 1 6.24-4.95 5.18 5.18 0 0 1 3.74 7.03 5.18 5.18 0 0 1-4.73 3.21v1.58a6.76 6.76 0 0 0 6.69-6.75zm-11.89.66h-1.59a6.76 6.76 0 0 0 6 6.05v-1.6a5.19 5.19 0 0 1-4.4-4.45zm5.59-2.23v-2.48h-.79v2.44l.33-.03c.16 0 .31.02.46.07zm-.4 5.37h.4v-2.25c-.13.05-.26.07-.4.07v2.18zm-3.93-4.32h2.32a2.2 2.2 0 0 0-.08.4h-2.24v-.4zm5.49.78h2.38v-.78h-2.45c.06.16.1.33.1.5a2.9 2.9 0 0 1-.03.28zm.96 2.67-1.62-1.61c.22-.16.4-.37.51-.6l1.67 1.65-.56.56zm-3.3-4.4-1.72-1.72-.56.56 1.67 1.67a1.81 1.81 0 0 1 .6-.51zm3.85-1.16-1.75 1.75a1.58 1.58 0 0 0-.57-.54l1.76-1.77.56.56zm-5.57 5.56 1.56-1.56a1.57 1.57 0 0 1-.54-.57l-1.58 1.57.56.56z" clip-rule="evenodd"/>
  <path fill="#61DBEF" fill-rule="evenodd" d="M208.45 43.12h1.6a5.19 5.19 0 0 0 4.4 4.46v1.59a6.76 6.76 0 0 1-6-6.05zm5.84.71-1.56 1.56-.56-.56 1.58-1.57c.13.23.31.43.54.57z" clip-rule="evenodd" opacity=".25"/>
  <path fill="#61DBEF" fill-rule="evenodd" d="M214.46 43.92v-.8h-4.42a5.19 5.19 0 0 0 4.42 4.46v-3.66zm-2.29.91.56.56 1.57-1.56a1.66 1.66 0 0 1-.54-.57l-1.59 1.57z" clip-rule="evenodd" opacity=".25"/>
  <path fill="#61DBEF" d="M196.49 53.34h-4.08V68.3h5.44l-1.36-14.95zm3.14 0h-1.57l1.36 14.95H201l-1.37-14.95zm1.58 0 1.36 14.95h11.88V53.34H201.2z"/>
  <path fill="#61DBEF" d="M197.13 43.12h-1.57l.06.68 2.34 8.42-.83-9.1z" opacity=".25"/>
  <path fill="#FAFCFC" d="M197.13 43.12h-1.57l.06.68 2.34 8.42-.83-9.1z" opacity=".5"/>
  <path fill="#61DBEF" d="m197.96 52.22-2.34-8.42.86 9.54h1.58l-.1-1.12z"/>
  <path fill="#61DBEF" d="m197.96 52.22-2.34-8.42.86 9.54h1.58l-.1-1.12z" opacity=".25"/>
  <path fill="#FAFCFC" d="m197.96 52.22-2.34-8.42.86 9.54h1.58l-.1-1.12z" opacity=".5"/>
  <path fill="#61DBEF" d="M198.06 53.34h-1.57l1.36 14.95h1.57l-1.36-14.95z"/>
  <path fill="#FAFCFC" d="M198.06 53.34h-1.57l1.36 14.95h1.57l-1.36-14.95z" opacity=".5"/>
  <path fill="#61DBEF" d="M199.63 53.34h1.58l-.93-10.22h-1.57l.92 10.22z" opacity=".25"/>
  <path fill="#FAFCFC" d="M199.63 53.34h1.58l-.93-10.22h-1.57l.92 10.22z" opacity=".5"/>
  <path fill="#61DBEF" d="M201 68.29h1.57l-1.36-14.95h-1.58L201 68.3z"/>
  <path fill="#FAFCFC" d="M201 68.29h1.57l-1.36-14.95h-1.58L201 68.3z" opacity=".5"/>
  <path fill="#61DBEF" fill-rule="evenodd" d="M213.54 42.33h-21.92v26.75h23.62V42.33h-1.7zm.9.79h-22.03v25.17h22.04V43.12z" clip-rule="evenodd"/>
</svg>
