<svg xmlns="http://www.w3.org/2000/svg" viewBox="0 0 150 42.74" width="150" height="42.74" fill="#fff">
  <path d="M11.517 17.795v3.221H7.478v-3.221A8.812 8.812 0 0 1 0 9.007C0 3.821 4.039 0 9.5 0S19 3.821 19 9.007a8.812 8.812 0 0 1-7.478 8.788m3.439-8.843A5.335 5.335 0 0 0 9.5 3.384a5.3 5.3 0 0 0-5.461 5.568 5.238 5.238 0 0 0 3.548 5.295V10.7H11.3v3.548a5.215 5.215 0 0 0 3.657-5.295m9.388 1.036V.273h4.039v9.552c0 3.275 1.419 4.64 3.876 4.64s3.876-1.365 3.876-4.64V.273h3.985v9.716c0 5.131-2.948 7.915-7.86 7.915s-7.916-2.784-7.916-7.915m33.624 3.93h-8.078l-1.528 3.712h-4.094L52.02.273h3.985l7.751 17.358h-4.2Zm-1.255-3.056-2.729-6.66-2.729 6.66ZM83.952.273v17.358h-3.275L71.998 7.096v10.535h-3.985V.273h3.33l8.624 10.535V.273ZM94.16 3.548h-5.568V.273h15.12v3.275h-5.568v14.083h-4.039V3.548Zm14.082 6.441V.273h4.039v9.552c0 3.275 1.419 4.64 3.876 4.64s3.876-1.365 3.876-4.64V.273h3.985v9.716c0 5.131-2.948 7.915-7.86 7.915-5.022.055-7.915-2.784-7.915-7.915m37.991 7.642V7.205l-5.131 8.568h-1.8l-5.076-8.352v10.21h-3.768V.273h3.33l6.5 10.808L146.671.273h3.275l.055 17.358h-3.766M46.397 33.515h3.657v7.042a12.1 12.1 0 0 1-7.039 2.183c-5.459 0-9.5-3.766-9.5-9.007s4.039-9.006 9.552-9.006a9.221 9.221 0 0 1 7.26 3l-2.565 2.4a5.775 5.775 0 0 0-4.476-1.965 5.568 5.568 0 1 0-.055 11.135 6.256 6.256 0 0 0 3.111-.764v-5.018Zm21.288 5.24h-8.079l-1.528 3.712h-4.093l7.751-17.358h3.985l7.751 17.358h-4.2Zm-1.255-3.057-2.729-6.659-2.729 6.659Zm27.129 6.769V32.041l-5.131 8.57h-1.8l-5.076-8.352v10.208h-3.768V25.109h3.33l6.5 10.808 6.382-10.808h3.275l.055 17.358Zm23.799-3.22v3.221H103.93V25.109h13.1v3.221h-9.116v3.766h8.079v3.113h-8.079v4.039Z"/>
</svg>
